# xmcd CD database file
#
# Track frame offsets:
#	175
#	5420
#	28502
#	50305
#	67397
#	83555
#	110637
#	125715
#	142550
#	169382
#	182862
#	207192
#	228032
#	245895
#
# Disc length: 3470 seconds
#
# Revision: 0
# Processed by: cddbd v1.5.1PL0 Copyright (c) Steve Scherf et al.
# Submitted via: CDex 1.51
#
DISCID=c00d8c0e
DTITLE=David Linx and Diederick Wissels - Up close
DYEAR=1995
DGENRE=Jazz
TTITLE0=I tell my heart...
TTITLE1=Sojourner
TTITLE2=Lord of the groudless
TTITLE3=Ease of sunrise
TTITLE4=Lunch at midnight
TTITLE5=What goes around comes around
TTITLE6=The Tale...
TTITLE7=Meaning
TTITLE8=Spoken silence
TTITLE9=Upon my soul
TTITLE10=In between the roses and the ashes
TTITLE11=Greying roofs
TTITLE12=One morningstar away
TTITLE13=Poughkeepsie
EXTD=YEAR: 1995
EXTT0=
EXTT1=
EXTT2=
EXTT3=
EXTT4=
EXTT5=
EXTT6=
EXTT7=
EXTT8=
EXTT9=
EXTT10=
EXTT11=
EXTT12=
EXTT13=
PLAYORDER=
